<?xml version="1.0" encoding="UTF-8"?>
<svg id="Layer_1" data-name="Layer 1" xmlns="http://www.w3.org/2000/svg" viewBox="0 0 512 512">
  <defs>
    <style>
      .cls-1 {
        fill: #f7620f;
      }

      .cls-2 {
        fill: #d34709;
      }

      .cls-3 {
        fill: #fc4b06;
      }
    </style>
  </defs>
  <path class="cls-3" d="M80,216v216H32v16H187l4,8,4,8H0v16H202.9l3.3,6.2c3.9,7.6,12.4,16.3,19.4,20,10.8,5.8,11,5.8,81.6,5.8h64.8l12-16,12-16h116v-16h-112v-16h80v-16h-48V0H80V216Zm336,8v208h-16v-17.6c0-21.4-.7-24.1-7.5-30.9-5.8-5.9-10.2-7.5-19.9-7.5-5.3,0-6.6-.3-6.6-1.6,0-2.7-10.1-11.9-14.6-13.2-2.3-.7-8.9-1.2-14.8-1.2-8.9,0-10.6-.2-10.6-1.6,0-2.7-10.1-11.9-14.6-13.2-2.3-.7-8.5-1.2-13.8-1.2h-9.6v-24h48V192h-16v-19.3c0-22.9-1.2-29.7-7.2-41.7-10.6-21.1-33.1-35-56.8-35s-46.5,14.1-56.9,35c-5.9,12.1-7.1,18.9-7.1,41.7v19.3h-16v128h56v39.5c0,21.7-.2,39.5-.4,39.5s-2.2-3.1-4.4-6.8c-7.6-12.8-16.1-18.3-28.3-18.3-6,0-8.2,.5-13.5,3.1-7.1,3.5-10.6,7.2-14.2,14.9-2.1,4.6-2.4,6.3-2,13.5s1,9.1,5.1,17.3l4.7,9.3h-51v-160h-16v160h-16V16H416V224Zm-148.5-110.5c17.2,4.5,30.5,17.9,35,35.2,1.1,4.1,1.5,11.1,1.5,24.5v18.8h-96v-18.8c0-13.4,.4-20.4,1.5-24.5,6.7-25.8,32.9-41.7,58-35.2Zm52.5,142.5v48h-32v-11.8c0-15.9-1.5-20.8-8.4-27.8-11.4-11.3-27.8-11.3-39.2,0-6.9,7-8.4,11.9-8.4,27.8v11.8h-40v-96h128v48Zm-51.6,19.9l3.1,3.1,.3,52.5,.3,52.5h15.9v-24h9.5c8.8,0,9.8,.2,12,2.5,2.5,2.4,2.5,2.7,2.5,20v17.5h16v-24h9.5c8.8,0,9.8,.2,12,2.5,2.5,2.4,2.5,2.7,2.5,20v17.5h16v-24h5.5c4.6,0,6,.4,8,2.5l2.5,2.4v72.4l-10,13.4-10.1,13.4-61.7-.3c-60.6-.3-61.8-.3-66.3-2.4-10.2-4.8-11.6-6.8-32.1-47.8-16.2-32.3-19-38.6-19-42.4,0-7.5,5.8-13.3,13.4-13.4,8-.2,9.9,1.8,22.7,22.9l11.6,19.3h15.5l.2-76.4,.3-76.4,2.5-2.7c3.3-3.6,5.7-4.6,10.4-4.1,2.7,.3,4.9,1.4,7,3.5Z"/>
  <path class="cls-2" d="M112,96v64h16V48H384V360h16V32H112V96Z"/>
  <path class="cls-1" d="M128,177.3c-4.9,1.6-13.3,10.2-14.8,15.3-1.6,5.6-1.6,41.2,0,46.8,1.6,5.5,9.9,13.8,15.4,15.4,9.6,2.8,18.2,.4,24.7-6.8,2.4-2.6,4.9-6.6,5.5-8.8,1.6-5.3,1.6-41.1,0-46.4-1.7-5.9-8.8-13.3-14.5-15.2-5.3-1.8-11.2-1.9-16.3-.3Zm13.5,17.2c2.5,2.4,2.5,2.6,2.5,21.5s0,19.1-2.5,21.5c-1.5,1.6-3.6,2.5-5.5,2.5s-4-.9-5.5-2.5c-2.5-2.4-2.5-2.6-2.5-21.5s0-19.1,2.5-21.5c1.5-1.6,3.6-2.5,5.5-2.5s4,.9,5.5,2.5Z"/>
  <path class="cls-1" d="M242.5,225.5c-8.9,1.9-16.6,5.1-23.1,9.5-10.7,7.1-10.4,6.1-4.3,12.9l5.4,5.9,4.5-3.3c19.2-13.9,42.4-14,62.1,0l4.5,3.2,5.2-5.8,5.2-5.7-4.2-3.7c-13.3-11.4-37.2-17-55.3-13Z"/>
  <path class="cls-2" d="M0,440v8H16v-16H0v8Z"/>
  <path class="cls-2" d="M496,440v8h16v-16h-16v8Z"/>
</svg>