<?xml version="1.0" encoding="UTF-8"?>
<svg id="Layer_1" data-name="Layer 1" xmlns="http://www.w3.org/2000/svg" viewBox="0 0 135.48 129.93">
  <defs>
    <style>
      .cls-1 {
        fill: #e96329;
      }

      .cls-2 {
        fill: #f6ea03;
        opacity: .21;
      }

      .cls-3 {
        fill: #ef7037;
      }

      .cls-4 {
        fill: #ef4823;
      }

      .cls-5 {
        fill: #ea6535;
      }
    </style>
  </defs>
  <g>
    <path class="cls-4" d="M49.05,8.17c-.35,.04-1.43,.2-2.39,.33-.96,.13-2.96,.63-4.46,1.11-3.63,1.17-7.55,3.83-9.3,6.27-2.23,3.11-2.17,2.59-2.17,19.75v15.42l-1.97,.28c-5.83,.78-10.26,3.94-11.08,7.94-.41,2.04-.41,38.63,0,40.68,.83,3.94,5.41,7.2,11.12,7.94,2.33,.3,74.82,.3,77.15,0,5.7-.74,10.29-4,11.12-7.94,.41-2.04,.41-38.63,0-40.68-.83-4-5.26-7.16-11.08-7.94l-1.97-.28v-15.42c0-17.16,.06-16.64-2.17-19.75-1.62-2.31-5.67-5.07-8.98-6.18-4.71-1.57-3.82-1.52-24.53-1.57-10.26-.02-18.92,0-19.27,.04Zm38.51,2.59c6.4,1.13,11.72,5,12.9,9.33,.22,.85,.35,6.35,.35,16.16v14.86h-12.42v-14.81c0-16.62,.13-15.82-2.33-16.9l-1.31-.59H49.98l-1.31,.59c-2.45,1.09-2.33,.28-2.33,16.9v14.81h-12.42v-14.86c0-9.81,.13-15.31,.35-16.16,1.15-4.26,6.24-8.01,12.55-9.25,1.72-.35,3.89-.39,20.39-.39,15.61-.02,18.79,.02,20.35,.3Zm-2.99,10.77c.64,.44,.64,.72,.64,15.01v14.58H49.53v-14.58c0-14.29,0-14.58,.64-15.01s1.05-.44,17.2-.44,16.6,.02,17.2,.44Zm22.62,32.39c2.33,.61,4.17,1.74,5.45,3.33l1.08,1.37v41.98l-.89,1.15c-1.11,1.46-2.87,2.65-4.87,3.33l-1.56,.52H28.35l-1.56-.52c-2.01-.67-3.76-1.87-4.87-3.33l-.89-1.15V58.61l.8-1.09c1.05-1.48,3.44-3.02,5.48-3.57,1.66-.44,2.36-.44,39.97-.44,37.08-.02,38.35,0,39.91,.39h0Z"/>
    <path class="cls-3" d="M50.36,57.2c-4.33,.94-6.21,4.55-3.63,7,.38,.37,.54,.78,.41,1-.1,.2-2.01,2.5-4.2,5.09l-3.98,4.74h-1.82c-4.84,0-7.99,3.11-6.24,6.2,.99,1.78,4.33,3.18,6.94,2.87l1.08-.11,4.33,5.13,4.3,5.13-.73,.59c-.38,.33-.89,1.09-1.11,1.7-1.11,3.15,3.15,6.11,7.84,5.46,1.97-.28,3.98-1.37,4.78-2.61l.57-.87h16.95l.57,.87c.8,1.24,2.8,2.33,4.78,2.61,4.68,.65,8.95-2.31,7.84-5.46-.22-.61-.73-1.37-1.11-1.7l-.73-.59,4.3-5.13,4.33-5.13,1.08,.11c2.61,.3,5.96-1.09,6.94-2.87,1.75-3.09-1.4-6.2-6.24-6.2h-1.82l-3.98-4.74c-2.2-2.59-4.11-4.89-4.2-5.09-.13-.22,.03-.63,.41-1,2.83-2.7,.32-6.59-4.62-7.14-2.61-.28-5.96,1-7.01,2.68l-.41,.72h-17.2l-.35-.61c-.38-.72-2.04-1.94-3.19-2.33-1.08-.39-3.73-.57-4.87-.33h0Zm4.14,2.92c.83,.57,1.08,.91,1.08,1.52,0,1.11-1.34,2.07-3.09,2.24-1.24,.11-1.47,.04-2.48-.65-.83-.57-1.11-.94-1.11-1.5,.03-1.41,1.37-2.33,3.47-2.35,.8,0,1.34,.2,2.13,.74Zm29.72-.44c.99,.37,1.62,1.17,1.62,2.11,0,.48-.32,.89-1.11,1.44-1.02,.7-1.24,.76-2.48,.65-1.75-.17-3.09-1.13-3.09-2.24,0-.61,.25-.96,1.08-1.52,1.21-.83,2.45-.96,3.98-.44Zm-7.74,3.87c1.27,1.72,3.28,2.57,6.08,2.57h1.85l4.24,5.07c3.41,4.02,4.2,5.11,3.92,5.37-.19,.17-.67,.76-1.02,1.28-.89,1.26-.67,2.96,.51,4.2l.83,.85-4.27,5.05c-4.11,4.87-4.3,5.05-5.19,4.98-2.68-.15-5.83,1.07-6.94,2.68l-.54,.76h-17.17l-.32-.52c-.16-.3-.83-.94-1.47-1.44-1.27-.96-3.63-1.59-5.54-1.48l-1.05,.07-4.27-5.05-4.27-5.05,.83-.85c1.18-1.24,1.4-2.94,.51-4.2-.35-.52-.83-1.11-1.02-1.28-.29-.26,.51-1.35,3.92-5.37l4.24-5.07h1.85c2.77,0,4.78-.83,5.99-2.46l.61-.8h17.17l.54,.7h0Zm-38.32,13.86c2.29,.61,2.93,2.57,1.21,3.74-.73,.48-1.24,.63-2.2,.63-1.5,0-3.06-.76-3.38-1.65-.32-.87,.38-2.02,1.53-2.5,1.11-.46,1.69-.5,2.83-.22Zm61.09,.15c1.18,.41,2.01,1.61,1.72,2.5-.13,.35-.64,.87-1.18,1.17-2.2,1.26-5.35,.28-5.35-1.68,.03-1.07,.45-1.54,1.78-2.02,1.18-.41,1.82-.41,3.03,.02Zm-44.75,18.45c.83,.57,1.08,.91,1.08,1.54,0,1.13-1.69,2.28-3.34,2.28s-3.34-1.15-3.34-2.28,1.69-2.28,3.34-2.28c.92,0,1.43,.17,2.26,.74Zm30.26,0c.83,.57,1.08,.91,1.08,1.54,0,1.13-1.69,2.28-3.34,2.28-.92,0-1.43-.17-2.26-.74s-1.08-.91-1.08-1.54c0-1.13,1.69-2.28,3.34-2.28,.92,0,1.43,.17,2.26,.74Z"/>
    <path class="cls-1" d="M50.39,71.3c-1.27,.96-.29,1.78,2.2,1.78h1.72v12.83h-1.24c-2.61,0-3.79,.78-2.77,1.85,.51,.54,.57,.54,5.48,.54,2.8,0,5.22-.09,5.57-.22,.86-.33,.8-1.39-.1-1.83-.38-.2-1.34-.35-2.07-.35h-1.37v-12.83h1.69c1.88,0,2.45-.26,2.45-1.09,0-1.02-.38-1.09-5.89-1.09-4.59,0-5.22,.04-5.67,.39Z"/>
    <path class="cls-5" d="M67.88,71.38c-.45,.41-.51,1.57-.51,8.22,0,8.38,.06,8.7,1.72,8.7,1.56,0,1.78-.5,1.78-4.2v-3.42h3.76c5.1-.02,7.36-.63,9.11-2.46,1.75-1.87,1.37-3.98-1.05-5.61-2.07-1.44-3.69-1.72-9.62-1.72-4.49,0-4.75,.02-5.19,.48h0Zm11.37,2.24c2.83,.91,2.83,3.44,0,4.35-.86,.3-2.23,.44-4.78,.5l-3.6,.11v-5.57l3.6,.11c2.52,.09,3.95,.24,4.78,.5h0Z"/>
  </g>
  <ellipse class="cls-2" cx="67.74" cy="64.96" rx="67.74" ry="64.96"/>
</svg>