<?xml version="1.0" encoding="utf-8"?>
<!-- Generator: Adobe Illustrator 23.0.3, SVG Export Plug-In . SVG Version: 6.00 Build 0)  -->
<svg version="1.1" id="Layer_1" xmlns="http://www.w3.org/2000/svg" xmlns:xlink="http://www.w3.org/1999/xlink" x="0px" y="0px"
	 viewBox="0 0 35 35" style="enable-background:new 0 0 35 35;" xml:space="preserve">
<style type="text/css">
	.st0{clip-path:url(#SVGID_2_);fill:url(#SVGID_3_);}
	.st1{clip-path:url(#SVGID_5_);fill:url(#SVGID_6_);}
	.st2{clip-path:url(#SVGID_8_);fill:url(#SVGID_9_);}
	.st3{clip-path:url(#SVGID_11_);fill:url(#SVGID_12_);}
	.st4{clip-path:url(#SVGID_14_);fill:url(#SVGID_15_);}
	.st5{clip-path:url(#SVGID_17_);fill:url(#SVGID_18_);}
	.st6{clip-path:url(#SVGID_20_);fill:url(#SVGID_21_);}
	.st7{clip-path:url(#SVGID_23_);fill:url(#SVGID_24_);}
	.st8{clip-path:url(#SVGID_26_);fill:url(#SVGID_27_);}
	.st9{font-family:'AbhayaLibre-Medium';}
	.st10{font-size:2.8937px;}
	.st11{clip-path:url(#SVGID_29_);fill:url(#SVGID_30_);}
	.st12{clip-path:url(#SVGID_32_);fill:url(#SVGID_33_);}
	.st13{clip-path:url(#SVGID_35_);fill:url(#SVGID_36_);}
	.st14{clip-path:url(#SVGID_38_);fill:url(#SVGID_39_);}
	.st15{clip-path:url(#SVGID_41_);fill:url(#SVGID_42_);}
	.st16{clip-path:url(#SVGID_44_);fill:url(#SVGID_45_);}
	.st17{clip-path:url(#SVGID_47_);fill:url(#SVGID_48_);}
	.st18{clip-path:url(#SVGID_50_);fill:url(#SVGID_51_);}
	.st19{clip-path:url(#SVGID_53_);fill:url(#SVGID_54_);}
	.st20{clip-path:url(#SVGID_56_);fill:url(#SVGID_57_);}
	.st21{clip-path:url(#SVGID_59_);fill:url(#SVGID_60_);}
	.st22{clip-path:url(#SVGID_62_);fill:url(#SVGID_63_);}
</style>
<g>
	<defs>
		<path id="SVGID_1_" d="M0.17,11.11c0.07,0,0.15,0.01,0.22,0.01c1.22,0.02,2.1,0.54,2.63,1.66c0.31,0.66,0.62,1.32,0.88,1.99
			c1.71,4.4,3.43,8.8,5.14,13.21c0.07,0.19,0.14,0.3,0.38,0.29c0.19-0.01,0.3-0.05,0.38-0.25c1.76-4.26,3.52-8.52,5.28-12.77
			c0.35-0.84,0.69-1.68,1.16-2.46c0.51-0.85,1.2-1.47,2.22-1.63c0.12-0.02,0.31,0.02,0.3-0.2c-0.01-0.19-0.13-0.17-0.24-0.16
			c-0.03,0-0.06,0.01-0.08,0.01c-1.68-0.01-3.36,0-5.05,0c-0.05,0-0.11,0-0.16,0c-0.1,0-0.16,0.03-0.16,0.15
			c0,0.1,0.02,0.16,0.14,0.16c0.11,0,0.21,0.02,0.32,0.03c0.62,0.06,1.06,0.38,1.28,0.97c0.15,0.39,0.21,0.81,0.16,1.23
			c-0.07,0.64-0.26,1.26-0.5,1.85c-1.26,3.15-2.54,6.29-3.81,9.43c-0.02,0.05-0.03,0.13-0.13,0.12c-0.03-0.06-0.06-0.13-0.09-0.2
			c-1.11-3.03-2.23-6.06-3.34-9.09c-0.27-0.73-0.6-1.44-0.74-2.22c-0.17-0.96,0.34-1.71,1.28-1.96c0.26-0.07,0.52-0.1,0.79-0.13
			c0.11-0.01,0.18-0.06,0.17-0.18c-0.01-0.14-0.09-0.15-0.19-0.15c-0.09,0-0.17,0-0.26,0c-2.55,0-5.1,0-7.65,0
			c-0.12,0-0.23-0.02-0.35-0.02C0.17,10.89,0.17,11,0.17,11.11"/>
	</defs>
	<clipPath id="SVGID_2_">
		<use xlink:href="#SVGID_1_"  style="overflow:visible;"/>
	</clipPath>
	
		<linearGradient id="SVGID_3_" gradientUnits="userSpaceOnUse" x1="-4.022954e-03" y1="35.0024" x2="0.9966" y2="35.0024" gradientTransform="matrix(18.6013 0 0 -18.6013 0.2474 670.6247)">
		<stop  offset="0" style="stop-color:#F16C6F"/>
		<stop  offset="1" style="stop-color:#FBBC72"/>
	</linearGradient>
	<rect x="0.17" y="10.78" class="st0" width="18.61" height="17.51"/>
</g>
<g>
	<defs>
		<path id="SVGID_4_" d="M30.55,17.22c-1.33,0.09-2.35,0.91-2.7,2.18c-0.32,1.14,0.12,2.31,1.16,3.07c0.65,0.48,1.36,0.85,2.07,1.23
			c0.52,0.28,1.03,0.57,1.43,1.01c0.55,0.62,0.71,1.7,0.34,2.44c-0.36,0.73-1.13,1.13-2.03,1.05c-0.83-0.08-1.42-0.56-1.9-1.19
			c-0.49-0.64-0.78-1.37-1-2.14c-0.03-0.09-0.02-0.23-0.19-0.21c-0.13,0.02-0.1,0.13-0.1,0.2c0,1.07,0,2.14,0,3.21
			c0,0.07-0.03,0.16,0.08,0.18c0.08,0.02,0.14-0.01,0.2-0.07c0.3-0.36,0.67-0.36,1.08-0.21c0.64,0.24,1.29,0.45,1.98,0.52
			c1.62,0.14,3.06-0.8,3.55-2.35c0.02-0.07,0.01-0.16,0.1-0.18v-1.48c-0.08-0.01-0.11-0.05-0.13-0.12c-0.16-0.71-0.58-1.25-1.13-1.7
			c-0.58-0.47-1.27-0.75-1.94-1.06c-0.56-0.26-1.14-0.49-1.63-0.88c-0.74-0.59-0.97-1.41-0.62-2.2c0.34-0.74,1.12-1.14,1.93-0.98
			c0.47,0.09,0.88,0.32,1.24,0.65c0.55,0.5,0.88,1.12,1.03,1.84c0.03,0.13,0.06,0.23,0.22,0.21c0.15-0.02,0.1-0.15,0.09-0.23
			c-0.04-0.82-0.08-1.65-0.12-2.47c0-0.07,0.02-0.16-0.08-0.19c-0.08-0.02-0.18-0.03-0.23,0.05c-0.27,0.44-0.61,0.32-0.97,0.15
			c-0.47-0.23-0.97-0.33-1.48-0.33C30.73,17.21,30.64,17.21,30.55,17.22"/>
	</defs>
	<clipPath id="SVGID_5_">
		<use xlink:href="#SVGID_4_"  style="overflow:visible;"/>
	</clipPath>
	
		<linearGradient id="SVGID_6_" gradientUnits="userSpaceOnUse" x1="-0.0106" y1="34.9975" x2="0.9894" y2="34.9975" gradientTransform="matrix(6.9908 0 0 -6.9908 27.7115 267.585)">
		<stop  offset="0" style="stop-color:#F16C6F"/>
		<stop  offset="1" style="stop-color:#FBBC72"/>
	</linearGradient>
	<path class="st1" d="M34.59,26.23c-0.01-0.03-0.02-0.05-0.02-0.08c-0.02-0.27,0.01-0.53,0.04-0.8c0.01-0.23,0-0.46-0.03-0.68
		c0-0.02,0-0.03,0-0.04c0-0.02-0.01-0.04-0.01-0.06v0c-0.03-0.08-0.04-0.17-0.04-0.26c0,0,0,0,0,0c0,0,0,0,0,0
		c0.01-0.09,0.04-0.17,0.08-0.24c0-0.01,0-0.01,0.01-0.02v-6.83h-7.09v11.43h7.09v-2.07c-0.01-0.06-0.01-0.13-0.01-0.19
		C34.6,26.33,34.6,26.28,34.59,26.23z"/>
</g>
<g>
	<defs>
		<path id="SVGID_7_" d="M20.09,3.02h-0.83c-0.28,0-0.57,0.02-0.86,0.01c-0.01,0-0.01,0-0.02,0.01c-0.01,0-0.02,0-0.03,0.01
			c-0.09,0.02-0.2,0.03-0.27,0.04c-0.02,0-0.04,0-0.05,0c-0.01,0-0.02,0-0.02,0c-0.03,0.01-0.06,0.02-0.09,0.04
			c-0.31,0.2-0.45,0.52-0.35,0.82c0.13,0.36,0.47,0.57,0.83,0.51c1.03-0.17,2.05-0.1,3.05,0.17c2.67,0.72,4.56,2.35,5.62,4.92
			c0.29,0.7,0.42,1.43,0.55,2.17c0.08,0.43,0.41,0.62,0.84,0.55c0.35-0.06,0.61-0.42,0.56-0.81c-0.02-0.17-0.04-0.34-0.07-0.51
			c-0.4-2.22-1.43-4.1-3.13-5.59c-1.4-1.23-3.02-2-4.86-2.28c-0.02,0-0.05-0.01-0.07-0.01c0,0-0.01,0-0.01,0c0,0-0.01,0-0.01,0
			c-0.02-0.01-0.03-0.01-0.05-0.01c0,0-0.01,0-0.01,0c-0.01,0-0.02,0-0.02-0.01c-0.13-0.01-0.27-0.01-0.4-0.01
			C20.28,3.02,20.18,3.02,20.09,3.02"/>
	</defs>
	<clipPath id="SVGID_8_">
		<use xlink:href="#SVGID_7_"  style="overflow:visible;"/>
	</clipPath>
	
		<linearGradient id="SVGID_9_" gradientUnits="userSpaceOnUse" x1="-6.482235e-03" y1="35.0017" x2="0.9935" y2="35.0017" gradientTransform="matrix(11.4848 0 0 -11.4848 17.6157 409.6653)">
		<stop  offset="0" style="stop-color:#F16C6F"/>
		<stop  offset="1" style="stop-color:#FBBC72"/>
	</linearGradient>
	<rect x="17.47" y="3.02" class="st2" width="11.6" height="9.31"/>
</g>
<g>
	<defs>
		<path id="SVGID_10_" d="M23.07,14.08c-0.13,0.04-0.13,0.16-0.16,0.25c-0.44,1.46-1.16,2.69-2.65,3.31
			c-0.06,0.03-0.11,0.06-0.11,0.14c0.01,0.11,0.09,0.11,0.16,0.11c0.29,0,0.58,0.02,0.87,0c0.27-0.02,0.33,0.08,0.33,0.34
			c-0.01,1.94-0.01,3.88,0,5.81c0,0.9-0.02,1.8,0.05,2.7c0.06,0.75,0.44,1.26,1.12,1.49c1.16,0.4,2.33,0.38,3.48-0.09
			c0.49-0.2,0.86-0.55,1.14-1c0.06-0.09,0.09-0.17-0.02-0.25c-0.11-0.08-0.15,0.02-0.2,0.08c-0.1,0.11-0.19,0.23-0.29,0.34
			c-0.73,0.87-2.19,0.72-2.8,0c-0.36-0.42-0.46-0.93-0.5-1.46c-0.09-1.27-0.01-2.55-0.04-3.57c0-1.52,0.01-2.8,0-4.07
			c0-0.25,0.06-0.33,0.32-0.33c0.5,0.01,1.01,0.01,1.51,0.01c0.39,0,0.77,0,1.16,0c0.2,0,0.27-0.05,0.28-0.27
			c0-0.24-0.13-0.22-0.28-0.22c-0.86,0-1.71,0-2.57,0c-0.05,0-0.09,0-0.12,0c-0.33,0-0.28,0.01-0.28-0.42c0-0.88,0-1.75,0-2.63
			c0-0.2-0.08-0.3-0.24-0.3C23.18,14.05,23.13,14.06,23.07,14.08"/>
	</defs>
	<clipPath id="SVGID_11_">
		<use xlink:href="#SVGID_10_"  style="overflow:visible;"/>
	</clipPath>
	
		<linearGradient id="SVGID_12_" gradientUnits="userSpaceOnUse" x1="-0.011" y1="34.9983" x2="0.989" y2="34.9983" gradientTransform="matrix(7.1969 0 0 -7.1969 20.2374 273.2201)">
		<stop  offset="0" style="stop-color:#F16C6F"/>
		<stop  offset="1" style="stop-color:#FBBC72"/>
	</linearGradient>
	<rect x="20.16" y="14.05" class="st3" width="7.24" height="14.59"/>
</g>
<g>
	<defs>
		<path id="SVGID_13_" d="M19.49,17.23c-1.06,0.15-2.12,0.28-3.18,0.42c-0.02,0-0.05,0-0.07,0c-0.09,0-0.19,0-0.19,0.15
			c0,0.21,0.16,0.17,0.27,0.18c0.59,0.06,0.99,0.35,1.23,0.89c0.21,0.47,0.22,0.98,0.23,1.48c0.02,1.34,0.01,2.68,0.01,4.01
			c0,0.63,0.01,1.26-0.06,1.89c-0.06,0.51-0.16,1.01-0.58,1.35c-0.28,0.23-0.64,0.28-0.99,0.34c-0.11,0.02-0.25,0.01-0.24,0.19
			c0.01,0.15,0.11,0.14,0.2,0.13c0.02,0,0.05-0.01,0.07-0.01c1.1,0,2.2,0,3.31,0c0.61,0,1.22,0,1.83,0c0.14,0,0.28,0.01,0.23-0.19
			c-0.03-0.13-0.17-0.11-0.27-0.13c-1.12-0.27-1.46-0.71-1.52-1.86c-0.07-1.4-0.02-2.8-0.04-3.99c0-1.69,0-3.15,0-4.62
			c0-0.15,0-0.25-0.16-0.25C19.54,17.23,19.52,17.23,19.49,17.23"/>
	</defs>
	<clipPath id="SVGID_14_">
		<use xlink:href="#SVGID_13_"  style="overflow:visible;"/>
	</clipPath>
	
		<linearGradient id="SVGID_15_" gradientUnits="userSpaceOnUse" x1="-0.0132" y1="35.0068" x2="0.9868" y2="35.0068" gradientTransform="matrix(5.6502 0 0 -5.6502 15.9867 220.5547)">
		<stop  offset="0" style="stop-color:#F16C6F"/>
		<stop  offset="1" style="stop-color:#FBBC72"/>
	</linearGradient>
	<rect x="15.9" y="17.23" class="st4" width="5.7" height="11.06"/>
</g>
<g>
	<defs>
		<path id="SVGID_16_" d="M18.14,5.77c-0.41,0.13-0.59,0.49-0.48,0.92c0.08,0.3,0.47,0.52,0.82,0.46c0.56-0.1,1.12-0.13,1.69-0.04
			c1.83,0.29,3.21,1.22,4.11,2.84c0.4,0.72,0.59,1.5,0.69,2.32c0.05,0.36,0.28,0.56,0.62,0.58c0.53,0.03,0.87-0.35,0.79-0.91
			c-0.13-0.95-0.37-1.86-0.85-2.7c-1.35-2.37-3.42-3.49-6.09-3.61C19,5.63,18.56,5.64,18.14,5.77"/>
	</defs>
	<clipPath id="SVGID_17_">
		<use xlink:href="#SVGID_16_"  style="overflow:visible;"/>
	</clipPath>
	
		<linearGradient id="SVGID_18_" gradientUnits="userSpaceOnUse" x1="-8.490873e-03" y1="35.0039" x2="0.9915" y2="35.0039" gradientTransform="matrix(8.7679 0 0 -8.7679 17.7032 316.1637)">
		<stop  offset="0" style="stop-color:#F16C6F"/>
		<stop  offset="1" style="stop-color:#FBBC72"/>
	</linearGradient>
	<rect x="17.55" y="5.63" class="st5" width="8.92" height="7.25"/>
</g>
<g>
	<defs>
		<path id="SVGID_19_" d="M19.39,8.34c-0.3-0.01-0.64,0.02-0.97,0.11c-0.52,0.14-0.79,0.47-0.69,0.9c0.1,0.42,0.47,0.61,0.99,0.49
			c1.89-0.44,3.54,0.87,3.58,2.81c0.01,0.5,0.29,0.83,0.71,0.82c0.42,0,0.7-0.33,0.72-0.82c0.08-2.31-1.87-4.33-4.19-4.33
			C19.48,8.33,19.43,8.34,19.39,8.34"/>
	</defs>
	<clipPath id="SVGID_20_">
		<use xlink:href="#SVGID_19_"  style="overflow:visible;"/>
	</clipPath>
	
		<linearGradient id="SVGID_21_" gradientUnits="userSpaceOnUse" x1="-0.0124" y1="35.0079" x2="0.9876" y2="35.0079" gradientTransform="matrix(6.01 0 0 -6.01 17.7763 221.3055)">
		<stop  offset="0" style="stop-color:#F16C6F"/>
		<stop  offset="1" style="stop-color:#FBBC72"/>
	</linearGradient>
	<rect x="17.62" y="8.33" class="st6" width="6.17" height="5.15"/>
</g>
<g>
	<defs>
		<path id="SVGID_22_" d="M16.56,14.38c-0.01,0.86,0.72,1.56,1.61,1.56c0.9,0,1.6-0.7,1.6-1.6c0-0.84-0.75-1.6-1.59-1.61
			c-0.01,0-0.01,0-0.02,0C17.3,12.72,16.57,13.48,16.56,14.38"/>
	</defs>
	<clipPath id="SVGID_23_">
		<use xlink:href="#SVGID_22_"  style="overflow:visible;"/>
	</clipPath>
	
		<linearGradient id="SVGID_24_" gradientUnits="userSpaceOnUse" x1="-0.0232" y1="35.0144" x2="0.9768" y2="35.0144" gradientTransform="matrix(3.2106 0 0 -3.2106 16.6394 126.7484)">
		<stop  offset="0" style="stop-color:#F16C6F"/>
		<stop  offset="1" style="stop-color:#FBBC72"/>
	</linearGradient>
	<rect x="16.56" y="12.72" class="st7" width="3.22" height="3.22"/>
</g>
<g>
	<defs>
		<polygon id="SVGID_25_" points="10.87,29.96 10.88,29.93 10.87,29.93 		"/>
	</defs>
	<clipPath id="SVGID_26_">
		<use xlink:href="#SVGID_25_"  style="overflow:visible;"/>
	</clipPath>
	
		<linearGradient id="SVGID_27_" gradientUnits="userSpaceOnUse" x1="-4.4412" y1="37.8428" x2="-3.4412" y2="37.8428" gradientTransform="matrix(0.0168 0 0 -0.0168 10.9415 30.5765)">
		<stop  offset="0" style="stop-color:#F16C6F"/>
		<stop  offset="1" style="stop-color:#FBBC72"/>
	</linearGradient>
	<rect x="10.87" y="29.93" class="st8" width="0.02" height="0.03"/>
</g>
<text transform="matrix(1 0 0 1 10.3904 32.0014)" class="st9 st10">(SMC-PVT) LTD</text>
<g>
	<defs>
		<path id="SVGID_28_" d="M10.67,30.68c-0.09,0.19-0.14,0.4-0.14,0.62c0,0.32,0.08,0.58,0.25,0.8c0.13,0.16,0.29,0.27,0.48,0.32
			l0.03-0.07c-0.21-0.08-0.36-0.26-0.44-0.56c-0.04-0.15-0.07-0.32-0.07-0.49c0-0.34,0.07-0.61,0.21-0.82
			c0.08-0.12,0.18-0.2,0.3-0.25l-0.03-0.07C11.01,30.24,10.81,30.41,10.67,30.68"/>
	</defs>
	<clipPath id="SVGID_29_">
		<use xlink:href="#SVGID_28_"  style="overflow:visible;"/>
	</clipPath>
	
		<linearGradient id="SVGID_30_" gradientUnits="userSpaceOnUse" x1="-4.034090e-03" y1="35.0026" x2="0.996" y2="35.0026" gradientTransform="matrix(18.4438 0 0 -18.4438 10.606 676.877)">
		<stop  offset="0" style="stop-color:#F16C6F"/>
		<stop  offset="1" style="stop-color:#FBBC72"/>
	</linearGradient>
	<rect x="10.53" y="30.16" class="st11" width="0.77" height="2.26"/>
</g>
<g>
	<defs>
		<path id="SVGID_31_" d="M11.63,30.45c-0.08,0.08-0.11,0.17-0.11,0.28c0,0.16,0.09,0.29,0.26,0.39c0.03,0.02,0.14,0.07,0.32,0.15
			c0.17,0.08,0.27,0.15,0.32,0.23c0.02,0.04,0.03,0.09,0.03,0.14c0,0.13-0.06,0.23-0.19,0.28c-0.06,0.02-0.12,0.04-0.19,0.04
			c-0.27,0-0.43-0.16-0.47-0.47c0-0.02-0.01-0.04-0.01-0.06h-0.09v0.59c0.05,0,0.07-0.01,0.08-0.04c0-0.02,0.01-0.04,0.01-0.08
			c0.15,0.1,0.31,0.14,0.5,0.14c0.22,0,0.39-0.06,0.51-0.17c0.09-0.08,0.13-0.18,0.13-0.3c0-0.17-0.09-0.3-0.27-0.4
			c-0.03-0.02-0.14-0.07-0.32-0.15c-0.17-0.07-0.27-0.15-0.31-0.23c-0.02-0.04-0.03-0.09-0.03-0.13c0-0.12,0.06-0.2,0.18-0.25
			c0.05-0.02,0.11-0.03,0.17-0.03c0.16,0,0.28,0.05,0.36,0.16c0.06,0.07,0.08,0.16,0.08,0.27h0.09v-0.5c-0.05,0-0.08,0.02-0.08,0.05
			c0,0.01-0.01,0.03-0.01,0.05c-0.14-0.07-0.29-0.11-0.46-0.11C11.91,30.28,11.75,30.33,11.63,30.45"/>
	</defs>
	<clipPath id="SVGID_32_">
		<use xlink:href="#SVGID_31_"  style="overflow:visible;"/>
	</clipPath>
	
		<linearGradient id="SVGID_33_" gradientUnits="userSpaceOnUse" x1="-4.036417e-03" y1="35.0102" x2="0.996" y2="35.0102" gradientTransform="matrix(18.4438 0 0 -18.4438 10.606 676.877)">
		<stop  offset="0" style="stop-color:#F16C6F"/>
		<stop  offset="1" style="stop-color:#FBBC72"/>
	</linearGradient>
	<rect x="11.51" y="30.28" class="st12" width="1.22" height="1.75"/>
</g>
<g>
	<defs>
		<path id="SVGID_34_" d="M14.6,30.31l-0.59,1.35l-0.64-1.35h-0.42v0.07h0.23v1.55h-0.23V32h0.57c0-0.04-0.02-0.07-0.05-0.07
			c-0.01,0-0.02,0-0.03,0h-0.15v-1.19l0.62,1.28h0.06l0.64-1.45v1.36h-0.23V32h0.71c0-0.04-0.01-0.07-0.04-0.07
			c-0.01,0-0.02,0-0.03,0h-0.15v-1.55h0.23v-0.07H14.6z"/>
	</defs>
	<clipPath id="SVGID_35_">
		<use xlink:href="#SVGID_34_"  style="overflow:visible;"/>
	</clipPath>
	
		<linearGradient id="SVGID_36_" gradientUnits="userSpaceOnUse" x1="-4.036417e-03" y1="35.0098" x2="0.996" y2="35.0098" gradientTransform="matrix(18.4438 0 0 -18.4438 10.606 676.877)">
		<stop  offset="0" style="stop-color:#F16C6F"/>
		<stop  offset="1" style="stop-color:#FBBC72"/>
	</linearGradient>
	<rect x="12.94" y="30.31" class="st13" width="2.14" height="1.71"/>
</g>
<g>
	<defs>
		<path id="SVGID_37_" d="M15.45,30.61c-0.11,0.16-0.17,0.34-0.17,0.54c0,0.25,0.08,0.45,0.23,0.62c0.16,0.17,0.37,0.26,0.64,0.26
			c0.19,0,0.38-0.05,0.55-0.15c0,0.08,0.01,0.12,0.04,0.14c0.01,0,0.03,0,0.05,0v-0.54h-0.07c-0.1,0.32-0.28,0.47-0.57,0.48
			c-0.26,0-0.43-0.15-0.51-0.43c-0.03-0.11-0.04-0.23-0.04-0.37c0-0.36,0.1-0.6,0.29-0.72c0.08-0.05,0.17-0.07,0.26-0.07
			c0.28,0,0.46,0.16,0.55,0.46h0.07l-0.01-0.53c-0.04,0-0.07,0.01-0.08,0.04c-0.01,0.02-0.01,0.06-0.01,0.1
			c-0.11-0.08-0.25-0.13-0.43-0.15c-0.04,0-0.08-0.01-0.12-0.01C15.84,30.28,15.61,30.39,15.45,30.61"/>
	</defs>
	<clipPath id="SVGID_38_">
		<use xlink:href="#SVGID_37_"  style="overflow:visible;"/>
	</clipPath>
	
		<linearGradient id="SVGID_39_" gradientUnits="userSpaceOnUse" x1="-4.036417e-03" y1="35.0102" x2="0.996" y2="35.0102" gradientTransform="matrix(18.4438 0 0 -18.4438 10.606 676.877)">
		<stop  offset="0" style="stop-color:#F16C6F"/>
		<stop  offset="1" style="stop-color:#FBBC72"/>
	</linearGradient>
	<rect x="15.28" y="30.28" class="st14" width="1.5" height="1.75"/>
</g>
<g>
	<defs>
		<rect id="SVGID_40_" x="17.02" y="31.35" width="0.63" height="0.13"/>
	</defs>
	<clipPath id="SVGID_41_">
		<use xlink:href="#SVGID_40_"  style="overflow:visible;"/>
	</clipPath>
	
		<linearGradient id="SVGID_42_" gradientUnits="userSpaceOnUse" x1="-4.036417e-03" y1="34.9963" x2="0.996" y2="34.9963" gradientTransform="matrix(18.4438 0 0 -18.4438 10.606 676.877)">
		<stop  offset="0" style="stop-color:#F16C6F"/>
		<stop  offset="1" style="stop-color:#FBBC72"/>
	</linearGradient>
	<rect x="17.02" y="31.35" class="st15" width="0.63" height="0.13"/>
</g>
<g>
	<defs>
		<path id="SVGID_43_" d="M18.45,30.38h0.28c0.17,0,0.28,0.08,0.32,0.24c0.01,0.05,0.02,0.09,0.02,0.14c0,0.25-0.11,0.38-0.32,0.4
			c-0.02,0-0.04,0-0.06,0h-0.24V30.38z M17.95,30.31v0.07h0.23v1.55h-0.23V32h0.78c0-0.04-0.01-0.07-0.05-0.07
			c-0.01,0-0.02,0-0.03,0h-0.21v-0.68h0.25c0.31,0,0.51-0.09,0.61-0.26c0.04-0.07,0.06-0.14,0.06-0.23c0-0.18-0.08-0.32-0.24-0.39
			c-0.09-0.04-0.19-0.06-0.31-0.06H17.95z"/>
	</defs>
	<clipPath id="SVGID_44_">
		<use xlink:href="#SVGID_43_"  style="overflow:visible;"/>
	</clipPath>
	
		<linearGradient id="SVGID_45_" gradientUnits="userSpaceOnUse" x1="-4.036417e-03" y1="35.0102" x2="0.996" y2="35.0102" gradientTransform="matrix(18.4438 0 0 -18.4438 10.606 676.877)">
		<stop  offset="0" style="stop-color:#F16C6F"/>
		<stop  offset="1" style="stop-color:#FBBC72"/>
	</linearGradient>
	<rect x="17.95" y="30.31" class="st16" width="1.41" height="1.7"/>
</g>
<g>
	<defs>
		<path id="SVGID_46_" d="M20.6,30.31v0.07h0.23l-0.47,1.31l-0.51-1.31h0.23v-0.07h-0.66v0.07h0.16l0.54,1.42
			c0.04,0.11,0.07,0.18,0.1,0.19c0.02,0.01,0.05,0.02,0.08,0.02h0.04l0.58-1.64h0.14v-0.07H20.6z"/>
	</defs>
	<clipPath id="SVGID_47_">
		<use xlink:href="#SVGID_46_"  style="overflow:visible;"/>
	</clipPath>
	
		<linearGradient id="SVGID_48_" gradientUnits="userSpaceOnUse" x1="-4.036417e-03" y1="35.0099" x2="0.996" y2="35.0099" gradientTransform="matrix(18.4438 0 0 -18.4438 10.606 676.877)">
		<stop  offset="0" style="stop-color:#F16C6F"/>
		<stop  offset="1" style="stop-color:#FBBC72"/>
	</linearGradient>
	<rect x="19.42" y="30.31" class="st17" width="1.66" height="1.71"/>
</g>
<g>
	<defs>
		<path id="SVGID_49_" d="M21.18,30.31l-0.01,0.57h0.08l0.05-0.2c0.05-0.19,0.16-0.29,0.31-0.29h0.13v1.55h-0.27V32h0.81
			c0-0.04-0.02-0.07-0.05-0.07c-0.01,0-0.02,0-0.03,0h-0.19v-1.55h0.14c0.16,0,0.26,0.1,0.31,0.29l0.05,0.2h0.08l-0.01-0.57H21.18z"
			/>
	</defs>
	<clipPath id="SVGID_50_">
		<use xlink:href="#SVGID_49_"  style="overflow:visible;"/>
	</clipPath>
	
		<linearGradient id="SVGID_51_" gradientUnits="userSpaceOnUse" x1="-4.036417e-03" y1="35.0102" x2="0.996" y2="35.0102" gradientTransform="matrix(18.4438 0 0 -18.4438 10.606 676.877)">
		<stop  offset="0" style="stop-color:#F16C6F"/>
		<stop  offset="1" style="stop-color:#FBBC72"/>
	</linearGradient>
	<rect x="21.16" y="30.31" class="st18" width="1.44" height="1.7"/>
</g>
<g>
	<defs>
		<path id="SVGID_52_" d="M22.73,30.24c0.11,0.04,0.22,0.13,0.3,0.25c0.14,0.21,0.21,0.48,0.21,0.82c0,0.17-0.02,0.34-0.07,0.49
			c-0.08,0.3-0.23,0.49-0.44,0.56l0.03,0.07c0.19-0.05,0.35-0.16,0.48-0.32c0.17-0.22,0.25-0.48,0.25-0.8
			c0-0.23-0.05-0.43-0.14-0.62c-0.14-0.27-0.34-0.45-0.6-0.52L22.73,30.24z"/>
	</defs>
	<clipPath id="SVGID_53_">
		<use xlink:href="#SVGID_52_"  style="overflow:visible;"/>
	</clipPath>
	
		<linearGradient id="SVGID_54_" gradientUnits="userSpaceOnUse" x1="-4.036417e-03" y1="35.0026" x2="0.996" y2="35.0026" gradientTransform="matrix(18.4438 0 0 -18.4438 10.606 676.877)">
		<stop  offset="0" style="stop-color:#F16C6F"/>
		<stop  offset="1" style="stop-color:#FBBC72"/>
	</linearGradient>
	<rect x="22.73" y="30.16" class="st19" width="0.76" height="2.26"/>
</g>
<g>
	<defs>
		<path id="SVGID_55_" d="M24.29,30.31v0.07h0.23v1.55h-0.23V32h1.27l0.01-0.57h-0.06l-0.05,0.2c-0.04,0.17-0.12,0.26-0.22,0.29
			c-0.02,0-0.05,0.01-0.08,0.01h-0.37v-1.55h0.24v-0.07H24.29z"/>
	</defs>
	<clipPath id="SVGID_56_">
		<use xlink:href="#SVGID_55_"  style="overflow:visible;"/>
	</clipPath>
	
		<linearGradient id="SVGID_57_" gradientUnits="userSpaceOnUse" x1="-4.036417e-03" y1="35.0102" x2="0.996" y2="35.0102" gradientTransform="matrix(18.4438 0 0 -18.4438 10.606 676.877)">
		<stop  offset="0" style="stop-color:#F16C6F"/>
		<stop  offset="1" style="stop-color:#FBBC72"/>
	</linearGradient>
	<rect x="24.29" y="30.31" class="st20" width="1.28" height="1.7"/>
</g>
<g>
	<defs>
		<path id="SVGID_58_" d="M25.7,30.31l-0.01,0.57h0.08l0.05-0.2c0.05-0.19,0.16-0.29,0.31-0.29h0.13v1.55h-0.27V32h0.81
			c0-0.04-0.01-0.07-0.05-0.07c-0.01,0-0.02,0-0.03,0h-0.19v-1.55h0.14c0.16,0,0.26,0.1,0.31,0.29l0.05,0.2h0.08l-0.01-0.57H25.7z"
			/>
	</defs>
	<clipPath id="SVGID_59_">
		<use xlink:href="#SVGID_58_"  style="overflow:visible;"/>
	</clipPath>
	
		<linearGradient id="SVGID_60_" gradientUnits="userSpaceOnUse" x1="-4.036417e-03" y1="35.0102" x2="0.996" y2="35.0102" gradientTransform="matrix(18.4438 0 0 -18.4438 10.606 676.877)">
		<stop  offset="0" style="stop-color:#F16C6F"/>
		<stop  offset="1" style="stop-color:#FBBC72"/>
	</linearGradient>
	<rect x="25.68" y="30.31" class="st21" width="1.43" height="1.7"/>
</g>
<g>
	<defs>
		<path id="SVGID_61_" d="M27.81,30.38h0.29c0.28,0,0.46,0.13,0.53,0.4c0.03,0.1,0.04,0.23,0.04,0.37c0,0.52-0.19,0.78-0.57,0.79
			h-0.3V30.38z M27.31,30.31v0.07h0.23v1.55h-0.23V32h0.79c0.26,0,0.47-0.08,0.64-0.24c0.16-0.16,0.24-0.36,0.24-0.61
			c0-0.32-0.12-0.56-0.35-0.71c-0.15-0.09-0.32-0.14-0.51-0.14H27.31z"/>
	</defs>
	<clipPath id="SVGID_62_">
		<use xlink:href="#SVGID_61_"  style="overflow:visible;"/>
	</clipPath>
	
		<linearGradient id="SVGID_63_" gradientUnits="userSpaceOnUse" x1="-4.036417e-03" y1="35.0102" x2="0.996" y2="35.0102" gradientTransform="matrix(18.4438 0 0 -18.4438 10.606 676.877)">
		<stop  offset="0" style="stop-color:#F16C6F"/>
		<stop  offset="1" style="stop-color:#FBBC72"/>
	</linearGradient>
	<rect x="27.31" y="30.31" class="st22" width="1.67" height="1.7"/>
</g>
</svg>
